<svg width="34" height="34" fill="none" xmlns="http://www.w3.org/2000/svg"><path d="M31.736.99H2.276a1.28 1.28 0 00-1.28 1.28v29.46c0 .708.572 1.28 1.28 1.28h29.46a1.28 1.28 0 001.28-1.28V2.27a1.28 1.28 0 00-1.28-1.28zM10.494 28.275h-4.75V12.993h4.75v15.282zm-2.373-17.37a2.755 2.755 0 110-5.51 2.755 2.755 0 010 5.51zm20.16 17.37h-4.746v-7.432c0-1.774-.032-4.051-2.47-4.051-2.47 0-2.85 1.93-2.85 3.922v7.561h-4.743V12.993h4.555v2.09h.064c.633-1.201 2.182-2.47 4.495-2.47 4.811 0 5.696 3.166 5.696 7.28v8.382z" fill="#fff"/></svg>