<svg width="33" height="33" fill="none" xmlns="http://www.w3.org/2000/svg"><path d="M31.697.385H2.237a1.28 1.28 0 00-1.28 1.281v29.46c0 .708.572 1.28 1.28 1.28h29.46a1.28 1.28 0 001.28-1.28V1.665a1.28 1.28 0 00-1.28-1.28zM10.455 27.671h-4.75V12.389h4.75v15.282zM8.082 10.3a2.754 2.754 0 110-5.508 2.754 2.754 0 010 5.508zm20.16 17.371h-4.746v-7.433c0-1.773-.032-4.05-2.47-4.05-2.47 0-2.85 1.929-2.85 3.922v7.561h-4.743V12.389h4.555v2.09h.064c.633-1.201 2.181-2.47 4.495-2.47 4.811 0 5.696 3.166 5.696 7.28v8.382z" fill="#2091F9"/></svg>