<svg width="34" height="28" fill="none" xmlns="http://www.w3.org/2000/svg"><path d="M33.645 4.08a13.688 13.688 0 01-3.93 1.057 6.808 6.808 0 003.002-3.762 13.474 13.474 0 01-4.331 1.65A6.808 6.808 0 0023.399.866a6.823 6.823 0 00-6.825 6.828c0 .528.064 1.057.168 1.565A19.396 19.396 0 012.67 2.116a6.777 6.777 0 00-.928 3.446 6.83 6.83 0 003.042 5.687 6.886 6.886 0 01-3.086-.868v.084a6.827 6.827 0 005.471 6.7c-.587.153-1.19.23-1.797.232a9.1 9.1 0 01-1.289-.104 6.837 6.837 0 006.38 4.735 13.68 13.68 0 01-8.473 2.918c-.572 0-1.1-.02-1.65-.084a19.328 19.328 0 0010.484 3.062c12.552 0 19.42-10.398 19.42-19.424 0-.297 0-.593-.02-.889a14.702 14.702 0 003.422-3.53z" fill="#2091F9"/></svg>